<?xml version="1.0" encoding="UTF-8"?>
<svg width="700pt" height="700pt" version="1.1" viewBox="0 0 700 700" xmlns="http://www.w3.org/2000/svg" xmlns:xlink="http://www.w3.org/1999/xlink">
 <defs>
  <symbol id="u" overflow="visible">
   <path d="m3.75-0.21875c-0.19922 0.09375-0.40234 0.16797-0.60938 0.21875-0.21094 0.050781-0.42969 0.078125-0.65625 0.078125-0.67969 0-1.2148-0.1875-1.6094-0.5625-0.39844-0.38281-0.59375-0.89844-0.59375-1.5469 0-0.65625 0.19531-1.1719 0.59375-1.5469 0.39453-0.38281 0.92969-0.57812 1.6094-0.57812 0.22656 0 0.44531 0.027344 0.65625 0.078125 0.20703 0.054687 0.41016 0.13281 0.60938 0.23438v0.84375c-0.19922-0.13281-0.39062-0.23438-0.57812-0.29688s-0.38672-0.09375-0.59375-0.09375c-0.375 0-0.67188 0.12109-0.89062 0.35938-0.21875 0.24219-0.32812 0.57422-0.32812 1 0 0.41797 0.10938 0.74609 0.32812 0.98438 0.21875 0.24219 0.51562 0.35938 0.89062 0.35938 0.20703 0 0.40625-0.03125 0.59375-0.09375s0.37891-0.15625 0.57812-0.28125z"/>
  </symbol>
  <symbol id="d" overflow="visible">
   <path d="m2.75-2.2188c-0.09375-0.039062-0.18359-0.070312-0.26562-0.09375-0.085937-0.019531-0.16797-0.03125-0.25-0.03125-0.25 0-0.44531 0.085938-0.57812 0.25-0.13672 0.15625-0.20312 0.38672-0.20312 0.6875v1.4062h-0.98438v-3.0625h0.98438v0.5c0.125-0.19531 0.26562-0.34375 0.42188-0.4375 0.16406-0.09375 0.36328-0.14062 0.59375-0.14062 0.03125 0 0.0625 0.007813 0.09375 0.015625 0.039062 0 0.097656 0.007812 0.17188 0.015625z"/>
  </symbol>
  <symbol id="a" overflow="visible">
   <path d="m3.5156-1.5312v0.26562h-2.2812c0.019531 0.23047 0.10156 0.40234 0.25 0.51562 0.14453 0.11719 0.34375 0.17188 0.59375 0.17188 0.20703 0 0.41406-0.023437 0.625-0.078125 0.21875-0.0625 0.44141-0.15625 0.67188-0.28125v0.75c-0.23047 0.09375-0.46094 0.16406-0.6875 0.20312-0.23047 0.039062-0.46484 0.0625-0.70312 0.0625-0.55469 0-0.98438-0.14062-1.2969-0.42188-0.30469-0.28125-0.45312-0.67578-0.45312-1.1875 0-0.5 0.14844-0.89062 0.45312-1.1719 0.30078-0.28906 0.71875-0.4375 1.25-0.4375 0.47656 0 0.85938 0.14844 1.1406 0.4375 0.28906 0.29297 0.4375 0.68359 0.4375 1.1719zm-1-0.32812c0-0.1875-0.058594-0.33594-0.17188-0.45312-0.10547-0.11328-0.24219-0.17188-0.40625-0.17188-0.19922 0-0.35547 0.058594-0.46875 0.17188-0.11719 0.10547-0.1875 0.25781-0.21875 0.45312z"/>
  </symbol>
  <symbol id="c" overflow="visible">
   <path d="m1.8438-1.375c-0.21094 0-0.36719 0.039062-0.46875 0.10938-0.10547 0.0625-0.15625 0.16406-0.15625 0.29688 0 0.125 0.039062 0.22656 0.125 0.29688 0.082031 0.0625 0.20312 0.09375 0.35938 0.09375 0.17578 0 0.32812-0.0625 0.45312-0.1875 0.125-0.13281 0.1875-0.30078 0.1875-0.5v-0.10938zm1.4844-0.375v1.75h-0.98438v-0.45312c-0.125 0.1875-0.27344 0.32422-0.4375 0.40625-0.16797 0.082031-0.36719 0.125-0.59375 0.125-0.32422 0-0.58594-0.085938-0.78125-0.26562-0.19922-0.1875-0.29688-0.42969-0.29688-0.73438 0-0.35156 0.125-0.61328 0.375-0.78125 0.25-0.16406 0.63281-0.25 1.1562-0.25h0.57812v-0.078125c0-0.15625-0.0625-0.26953-0.1875-0.34375-0.11719-0.070312-0.30469-0.10938-0.5625-0.10938-0.21094 0-0.40625 0.023437-0.59375 0.0625-0.17969 0.042969-0.33984 0.10547-0.48438 0.1875v-0.75c0.20703-0.039063 0.41406-0.078125 0.625-0.10938 0.20703-0.03125 0.41406-0.046875 0.625-0.046875 0.55078 0 0.94531 0.10938 1.1875 0.32812 0.25 0.21875 0.375 0.57422 0.375 1.0625z"/>
  </symbol>
  <symbol id="b" overflow="visible">
   <path d="m1.5312-3.9219v0.85938h1.0156v0.70312h-1.0156v1.2969c0 0.14844 0.023438 0.24609 0.078125 0.29688 0.0625 0.042969 0.17578 0.0625 0.34375 0.0625h0.5v0.70312h-0.82812c-0.38672 0-0.66406-0.078125-0.82812-0.23438-0.15625-0.16406-0.23438-0.44141-0.23438-0.82812v-1.2969h-0.48438v-0.70312h0.48438v-0.85938z"/>
  </symbol>
  <symbol id="j" overflow="visible">
   <path d="m2.5469-2.6094v-1.6406h0.98438v4.25h-0.98438v-0.4375c-0.13672 0.17969-0.28906 0.30859-0.45312 0.39062-0.15625 0.082031-0.33984 0.125-0.54688 0.125-0.375 0-0.6875-0.14453-0.9375-0.4375-0.24219-0.30078-0.35938-0.69141-0.35938-1.1719 0-0.46875 0.11719-0.85156 0.35938-1.1562 0.25-0.30078 0.5625-0.45312 0.9375-0.45312 0.20703 0 0.39062 0.046875 0.54688 0.14062 0.16406 0.085938 0.31641 0.21484 0.45312 0.39062zm-0.64062 1.9844c0.20703 0 0.36328-0.078125 0.46875-0.23438 0.11328-0.15625 0.17188-0.37891 0.17188-0.67188 0-0.28906-0.058594-0.50781-0.17188-0.65625-0.10547-0.15625-0.26172-0.23438-0.46875-0.23438-0.21094 0-0.37109 0.078125-0.48438 0.23438-0.10547 0.14844-0.15625 0.36719-0.15625 0.65625 0 0.29297 0.050781 0.51562 0.15625 0.67188 0.11328 0.15625 0.27344 0.23438 0.48438 0.23438z"/>
  </symbol>
  <symbol id="i" overflow="visible">
   <path d="m2.0938-0.625c0.20703 0 0.36719-0.078125 0.48438-0.23438 0.11328-0.15625 0.17188-0.37891 0.17188-0.67188 0-0.28906-0.058594-0.50781-0.17188-0.65625-0.11719-0.15625-0.27734-0.23438-0.48438-0.23438-0.21094 0-0.37109 0.078125-0.48438 0.23438-0.10547 0.14844-0.15625 0.36719-0.15625 0.65625 0 0.29297 0.050781 0.51562 0.15625 0.67188 0.11328 0.15625 0.27344 0.23438 0.48438 0.23438zm-0.64062-1.9844c0.13281-0.17578 0.28125-0.30469 0.4375-0.39062 0.16406-0.09375 0.35156-0.14062 0.5625-0.14062 0.38281 0 0.69531 0.15234 0.9375 0.45312 0.23828 0.30469 0.35938 0.6875 0.35938 1.1562 0 0.48047-0.12109 0.87109-0.35938 1.1719-0.24219 0.29297-0.55469 0.4375-0.9375 0.4375-0.21094 0-0.39844-0.042969-0.5625-0.125-0.15625-0.082031-0.30469-0.21094-0.4375-0.39062v0.4375h-0.98438v-4.25h0.98438z"/>
  </symbol>
  <symbol id="g" overflow="visible">
   <path d="m0.0625-3.0625h0.98438l0.82812 2.0781 0.6875-2.0781h0.98438l-1.2812 3.3594c-0.13672 0.33203-0.29297 0.56641-0.46875 0.70312-0.16797 0.13281-0.39062 0.20312-0.67188 0.20312h-0.5625v-0.64062h0.29688c0.16406 0 0.28516-0.027344 0.35938-0.078125 0.082031-0.054687 0.14453-0.14844 0.1875-0.28125l0.03125-0.078125z"/>
  </symbol>
  <symbol id="f" overflow="visible">
   <path d="m0.51562-4.0781h1.1719l1.4844 2.7969v-2.7969h1v4.0781h-1.1719l-1.4844-2.7969v2.7969h-1z"/>
  </symbol>
  <symbol id="h" overflow="visible">
   <path d="m3.5469-1.8594v1.8594h-0.98438v-1.4219c0-0.26953-0.007812-0.45312-0.015625-0.54688-0.011719-0.10156-0.03125-0.17578-0.0625-0.21875-0.042969-0.0625-0.09375-0.10938-0.15625-0.14062-0.0625-0.039063-0.13672-0.0625-0.21875-0.0625-0.21094 0-0.37109 0.078125-0.48438 0.23438-0.11719 0.15625-0.17188 0.375-0.17188 0.65625v1.5h-0.98438v-4.25h0.98438v1.6406c0.14453-0.17578 0.30078-0.30469 0.46875-0.39062 0.16406-0.09375 0.34766-0.14062 0.54688-0.14062 0.35156 0 0.61719 0.10938 0.79688 0.32812 0.1875 0.21875 0.28125 0.53906 0.28125 0.95312z"/>
  </symbol>
  <symbol id="t" overflow="visible">
   <path d="m0.03125-4.0781h3.75v0.79688h-1.3438v3.2812h-1.0625v-3.2812h-1.3438z"/>
  </symbol>
  <symbol id="s" overflow="visible">
   <path d="m2.5469-0.51562c-0.13672 0.17969-0.28906 0.30859-0.45312 0.39062-0.15625 0.085938-0.33984 0.125-0.54688 0.125-0.375 0-0.6875-0.14453-0.9375-0.4375-0.24219-0.28906-0.35938-0.66406-0.35938-1.125 0-0.45703 0.11719-0.83203 0.35938-1.125 0.25-0.28906 0.5625-0.4375 0.9375-0.4375 0.20703 0 0.39062 0.042969 0.54688 0.125 0.16406 0.085938 0.31641 0.21484 0.45312 0.39062v-0.45312h0.98438v2.75c0 0.48828-0.15625 0.86328-0.46875 1.125-0.30469 0.25781-0.75 0.39062-1.3438 0.39062-0.1875 0-0.375-0.015625-0.5625-0.046875-0.17969-0.023438-0.35547-0.0625-0.53125-0.125v-0.76562c0.16406 0.10156 0.33203 0.17578 0.5 0.21875 0.16406 0.050781 0.33203 0.078125 0.5 0.078125 0.32031 0 0.55469-0.074219 0.70312-0.21875 0.14453-0.13672 0.21875-0.35156 0.21875-0.65625zm-0.64062-1.9062c-0.19922 0-0.35547 0.078125-0.46875 0.23438-0.11719 0.14844-0.17188 0.35547-0.17188 0.625 0 0.28125 0.050781 0.49609 0.15625 0.64062 0.11328 0.14844 0.27344 0.21875 0.48438 0.21875 0.20703 0 0.36328-0.070313 0.46875-0.21875 0.11328-0.15625 0.17188-0.36719 0.17188-0.64062 0-0.26953-0.058594-0.47656-0.17188-0.625-0.10547-0.15625-0.26172-0.23438-0.46875-0.23438z"/>
  </symbol>
  <symbol id="r" overflow="visible">
   <path d="m0.46875-3.0625h0.98438v3.0625h-0.98438zm0-1.1875h0.98438v0.79688h-0.98438z"/>
  </symbol>
  <symbol id="q" overflow="visible">
   <path d="m2.4844-4.25v0.64062h-0.54688c-0.13672 0-0.23047 0.027344-0.28125 0.078125-0.054688 0.054688-0.078125 0.14062-0.078125 0.26562v0.20312h0.82812v0.70312h-0.82812v2.3594h-0.98438v-2.3594h-0.48438v-0.70312h0.48438v-0.20312c0-0.33203 0.09375-0.57812 0.28125-0.73438 0.1875-0.16406 0.47266-0.25 0.85938-0.25z"/>
  </symbol>
  <symbol id="e" overflow="visible">
   <path d="m1.9219-2.4375c-0.21875 0-0.38672 0.078125-0.5 0.23438-0.10547 0.15625-0.15625 0.38281-0.15625 0.67188 0 0.29297 0.050781 0.51562 0.15625 0.67188 0.11328 0.15625 0.28125 0.23438 0.5 0.23438s0.37891-0.078125 0.48438-0.23438c0.11328-0.15625 0.17188-0.37891 0.17188-0.67188 0-0.28906-0.058594-0.51562-0.17188-0.67188-0.10547-0.15625-0.26562-0.23438-0.48438-0.23438zm0-0.70312c0.53125 0 0.94141 0.14844 1.2344 0.4375 0.30078 0.28125 0.45312 0.67188 0.45312 1.1719 0 0.51172-0.15234 0.90625-0.45312 1.1875-0.29297 0.28125-0.70312 0.42188-1.2344 0.42188-0.52344 0-0.93359-0.14062-1.2344-0.42188-0.30469-0.28125-0.45312-0.67578-0.45312-1.1875 0-0.5 0.14844-0.89062 0.45312-1.1719 0.30078-0.28906 0.71094-0.4375 1.2344-0.4375z"/>
  </symbol>
  <symbol id="p" overflow="visible">
   <path d="m3.3125-2.5469c0.11328-0.1875 0.25391-0.33203 0.42188-0.4375 0.17578-0.10156 0.36719-0.15625 0.57812-0.15625 0.34375 0 0.60938 0.10938 0.79688 0.32812s0.28125 0.53906 0.28125 0.95312v1.8594h-0.98438v-1.5938-0.0625-0.125c0-0.21875-0.03125-0.375-0.09375-0.46875s-0.16797-0.14062-0.3125-0.14062c-0.1875 0-0.33594 0.078125-0.4375 0.23438-0.09375 0.14844-0.14062 0.36719-0.14062 0.65625v1.5h-0.98438v-1.5938c0-0.34375-0.03125-0.5625-0.09375-0.65625-0.054688-0.09375-0.15625-0.14062-0.3125-0.14062-0.1875 0-0.33594 0.078125-0.4375 0.23438-0.09375 0.14844-0.14062 0.36719-0.14062 0.65625v1.5h-0.98438v-3.0625h0.98438v0.45312c0.11328-0.17578 0.25-0.30469 0.40625-0.39062 0.15625-0.09375 0.32812-0.14062 0.51562-0.14062 0.20703 0 0.39062 0.054687 0.54688 0.15625 0.16406 0.10547 0.29688 0.25 0.39062 0.4375z"/>
  </symbol>
  <symbol id="o" overflow="visible">
   <path d="m0.4375-1.1875v-1.875h0.98438v0.3125 0.625 0.5c0 0.24219 0.003906 0.41797 0.015625 0.53125 0.007812 0.10547 0.03125 0.18359 0.0625 0.23438 0.039062 0.0625 0.09375 0.11719 0.15625 0.15625 0.0625 0.03125 0.13281 0.046875 0.21875 0.046875 0.20703 0 0.36719-0.078125 0.48438-0.23438 0.11328-0.15625 0.17188-0.375 0.17188-0.65625v-1.5156h0.98438v3.0625h-0.98438v-0.4375c-0.14844 0.17969-0.30469 0.30859-0.46875 0.39062-0.16797 0.082031-0.35156 0.125-0.54688 0.125-0.35547 0-0.625-0.10938-0.8125-0.32812-0.17969-0.21875-0.26562-0.53125-0.26562-0.9375z"/>
  </symbol>
  <symbol id="n" overflow="visible">
   <path d="m3.5469-1.8594v1.8594h-0.98438v-1.4219c0-0.26953-0.007812-0.45312-0.015625-0.54688-0.011719-0.10156-0.03125-0.17578-0.0625-0.21875-0.042969-0.0625-0.09375-0.10938-0.15625-0.14062-0.0625-0.039063-0.13672-0.0625-0.21875-0.0625-0.21094 0-0.37109 0.078125-0.48438 0.23438-0.11719 0.15625-0.17188 0.375-0.17188 0.65625v1.5h-0.98438v-3.0625h0.98438v0.45312c0.14453-0.17578 0.30078-0.30469 0.46875-0.39062 0.16406-0.09375 0.34766-0.14062 0.54688-0.14062 0.35156 0 0.61719 0.10938 0.79688 0.32812 0.1875 0.21875 0.28125 0.53906 0.28125 0.95312z"/>
  </symbol>
  <symbol id="m" overflow="visible">
   <path d="m0.51562-4.0781h1.75c0.50781 0 0.90625 0.11719 1.1875 0.34375 0.28125 0.23047 0.42188 0.55859 0.42188 0.98438 0 0.42969-0.14062 0.75781-0.42188 0.98438-0.28125 0.23047-0.67969 0.34375-1.1875 0.34375h-0.70312v1.4219h-1.0469zm1.0469 0.76562v1.1406h0.57812c0.20703 0 0.36328-0.046875 0.46875-0.14062 0.11328-0.10156 0.17188-0.25 0.17188-0.4375 0-0.17578-0.058594-0.3125-0.17188-0.40625-0.10547-0.10156-0.26172-0.15625-0.46875-0.15625z"/>
  </symbol>
  <symbol id="l" overflow="visible">
   <path d="m0.46875-3.0625h0.98438v3.0156c0 0.40625-0.10156 0.71094-0.29688 0.92188-0.19922 0.21875-0.48438 0.32812-0.85938 0.32812h-0.48438v-0.64062h0.17188c0.1875 0 0.3125-0.042969 0.375-0.125 0.070313-0.085938 0.10938-0.24609 0.10938-0.48438zm0-1.1875h0.98438v0.79688h-0.98438z"/>
  </symbol>
  <symbol id="k" overflow="visible">
   <path d="m2.9375-2.9688v0.79688c-0.125-0.082031-0.25781-0.14453-0.39062-0.1875-0.13672-0.050781-0.27734-0.078125-0.42188-0.078125-0.27344 0-0.48438 0.085938-0.64062 0.25-0.14844 0.15625-0.21875 0.375-0.21875 0.65625 0 0.29297 0.070313 0.51562 0.21875 0.67188 0.15625 0.15625 0.36719 0.23438 0.64062 0.23438 0.15625 0 0.30078-0.019531 0.4375-0.0625 0.13281-0.039062 0.25781-0.10938 0.375-0.20312v0.79688c-0.14844 0.0625-0.30469 0.10156-0.46875 0.125-0.15625 0.03125-0.3125 0.046875-0.46875 0.046875-0.55469 0-0.98438-0.14062-1.2969-0.42188s-0.46875-0.67578-0.46875-1.1875c0-0.5 0.15625-0.89062 0.46875-1.1719 0.3125-0.28906 0.74219-0.4375 1.2969-0.4375 0.16406 0 0.32031 0.015625 0.46875 0.046875 0.15625 0.03125 0.3125 0.074219 0.46875 0.125z"/>
  </symbol>
 </defs>
 <g>
  <path d="m498.85 461.33c-42.672 42.672-151.2 3.4727-242.48-87.809-91.277-91.281-130.37-199.7-87.695-242.37l44.238-44.238c7.7266-7.7266 20.273-7.7266 28 0l45.137 45.137c7.7266 7.7266 7.7266 20.273 0 28l-30.801 30.801c-23.742 23.742-2.9102 84.113 47.824 134.85 50.734 50.734 112.22 72.688 135.97 48.945l30.801-30.801c7.7266-7.7266 20.273-7.7266 28 0l45.137 45.137c7.7266 7.7266 7.7266 20.273 0 28z"/>
  <path d="m491.01 453.38c-0.78516 0.78516-1.5664 1.5664-2.4648 2.2383-0.33594 0.33594-2.3516 1.9023-1.457 1.2305 0.89453-0.67188-1.5664 1.1211-1.9023 1.3438-0.89453 0.55859-1.9023 1.2305-2.8008 1.793-1.793 1.0078-3.6953 2.0156-5.6016 2.8008 1.9023-0.89453-0.78516 0.22266-1.457 0.55859-1.1211 0.44922-2.2383 0.78516-3.3594 1.1211-2.1289 0.67187-4.2578 1.1211-6.3828 1.5664-1.2305 0.22266-2.3516 0.44922-3.5859 0.67188-0.11328 0-1.793 0.22266-0.67188 0.11328 1.2305-0.11328-1.0078 0.11328-1.2305 0.11328-5.1523 0.44922-10.191 0.55859-15.23 0.33594-10.977-0.55859-21.055-2.5742-32.48-5.9375-12.543-3.5859-24.754-8.3984-36.512-14.113-59.695-28.891-112.22-75.371-152.43-127.9-18.367-23.969-34.945-50.289-46.48-78.289-9.0703-21.953-15.457-44.352-14.113-67.312 0.11328-1.2305 0.22266-2.5742 0.33594-3.8086 0-0.55859 0.11328-1.1211 0.22266-1.5664 0 0.22266-0.22266 1.6797 0 0.33594 0.33594-2.3516 0.78516-4.8164 1.457-7.168 0.55859-2.1289 1.1211-4.2578 1.9023-6.2734 0.22266-0.55859 1.2305-3.2461 0.89453-2.3516-0.33594 0.89453 0.78516-1.6797 1.0078-2.1289 0.89453-1.9023 2.0156-3.6953 3.1367-5.375 0.55859-0.89453 1.2305-1.793 1.9023-2.6875-1.2305 1.6797 0.44922-0.55859 0.89453-1.0078 1.2305-1.457 2.6875-2.8008 4.0312-4.1445 12.098-12.098 24.078-24.078 36.176-36.176 3.3594-3.3594 7.2812-8.8477 12.434-8.8477 5.2656 0 9.1836 5.6016 12.543 8.9609l36.512 36.512c4.2578 4.2578 6.7188 9.1836 2.1289 14.449-4.4805 5.1523-9.7422 9.7422-14.559 14.559-11.762 11.762-25.09 22.398-28.113 39.648-4.5938 26.098 6.3828 53.09 19.375 75.375 17.586 30.129 42 56.113 69.777 77.168 22.961 17.473 50.062 32.367 79.07 35.84 10.977 1.3438 22.176 0.22266 32.258-4.4805 6.2734-2.9102 10.977-7.7266 15.793-12.543 6.4961-6.4961 13.105-13.105 19.602-19.602 4.0312-4.0312 8.5117-10.527 14.895-8.7344 4.3672 1.2305 8.3984 6.7188 11.426 9.8555l36.062 36.062c4.1445 4.1445 5.7109 9.1836 1.3438 14-10.641 11.648-22.398 22.398-33.602 33.602-3.8008 3.25-7.2734 6.7188-10.746 10.191-10.191 10.191 5.6016 26.098 15.793 15.793l33.039-33.039c3.9219-3.9219 7.9531-7.6172 11.648-11.762 11.426-12.77 10.977-31.023-0.67188-43.457-11.09-11.762-22.961-22.961-34.496-34.496-4.0312-4.0312-7.9531-8.5117-12.434-12.207-12.77-10.641-30.574-9.2969-42.336 1.9023-10.641 10.078-20.719 20.832-31.137 31.137-0.33594 0.33594-0.67187 0.67188-1.0078 0.89453-1.2305 1.1211 1.457-1.0078 0 0-0.78516 0.55859-1.5664 1.0078-2.3516 1.457-0.67188 0.33594-3.1367 1.5664-1.2305 0.78516-1.2305 0.44922-2.4648 0.89453-3.6953 1.2305-1.1211 0.33594-2.3516 0.55859-3.4727 0.78516-2.4648 0.55859 0.11328 0.11328-1.793 0.22266-2.6875 0.22266-5.2656 0.22266-7.9531 0.11328-10.414-0.55859-23.297-4.4805-34.047-9.4062-31.359-14.449-58.574-37.633-80.527-64.062-10.527-12.656-19.711-26.543-26.879-41.441-2.9102-5.9375-5.2656-12.098-7.168-18.367-1.6797-5.4883-3.0234-11.984-3.3594-16.238-0.22266-2.6875-0.22266-5.375-0.11328-8.0625 0.11328-1.1211 0.11328-2.2383 0.22266-3.2461-0.22266 2.0156 0.33594-1.5664 0.44922-2.2383 0.22266-1.1211 0.67188-2.2383 1.0078-3.3594 0.11328-0.44922 0.33594-0.89453 0.44922-1.457-0.67187 1.9023-0.22266 0.44922 0 0 0.44922-0.89453 0.89453-1.6797 1.3438-2.5742 0.33594-0.55859 2.3516-3.3594 1.0078-1.5664 4.2578-5.1523 9.5195-9.6328 14.223-14.336 5.9375-5.9375 11.871-11.762 17.695-17.695 10.414-10.641 13.328-27.215 4.5938-39.871-3.5859-5.1523-8.625-9.5195-13.105-14-7.0547-7.0547-14.113-14.113-21.055-21.055-4.8164-4.8164-9.5195-9.7422-14.449-14.449-11.09-10.641-28-12.77-40.656-3.3594-4.9297 3.6953-9.0703 8.3984-13.328 12.77l-21.617 21.617c-11.312 11.312-22.176 21.617-28.113 36.961-8.1758 21.281-5.9375 45.809-0.78516 67.535 6.9453 28.785 20.16 56.223 35.617 81.312 37.406 60.816 90.609 114.13 151.09 151.98 25.199 15.793 52.641 29.23 81.535 36.512 21.84 5.4883 46.48 8.0625 68.207 0.22266 9.5195-3.4727 18.258-8.5117 25.535-15.68 10.422-9.9844-5.3711-25.887-15.676-15.809z"/>
  <use x="70" y="576.800781" xlink:href="#u"/>
  <use x="74.109375" y="576.800781" xlink:href="#d"/>
  <use x="76.871094" y="576.800781" xlink:href="#a"/>
  <use x="80.667969" y="576.800781" xlink:href="#c"/>
  <use x="84.449219" y="576.800781" xlink:href="#b"/>
  <use x="87.125" y="576.800781" xlink:href="#a"/>
  <use x="90.921875" y="576.800781" xlink:href="#j"/>
  <use x="96.882812" y="576.800781" xlink:href="#i"/>
  <use x="100.890625" y="576.800781" xlink:href="#g"/>
  <use x="106.488281" y="576.800781" xlink:href="#f"/>
  <use x="111.175781" y="576.800781" xlink:href="#a"/>
  <use x="114.976562" y="576.800781" xlink:href="#h"/>
  <use x="118.960938" y="576.800781" xlink:href="#c"/>
  <use x="124.691406" y="576.800781" xlink:href="#t"/>
  <use x="128.511719" y="576.800781" xlink:href="#g"/>
  <use x="132.160156" y="576.800781" xlink:href="#c"/>
  <use x="135.9375" y="576.800781" xlink:href="#s"/>
  <use x="139.949219" y="576.800781" xlink:href="#r"/>
  <use x="70" y="582.398437" xlink:href="#q"/>
  <use x="72.4375" y="582.398437" xlink:href="#d"/>
  <use x="75.199219" y="582.398437" xlink:href="#e"/>
  <use x="79.046875" y="582.398437" xlink:href="#p"/>
  <use x="86.828125" y="582.398437" xlink:href="#b"/>
  <use x="89.507812" y="582.398437" xlink:href="#h"/>
  <use x="93.492188" y="582.398437" xlink:href="#a"/>
  <use x="99.242188" y="582.398437" xlink:href="#f"/>
  <use x="103.929688" y="582.398437" xlink:href="#e"/>
  <use x="107.773438" y="582.398437" xlink:href="#o"/>
  <use x="111.761719" y="582.398437" xlink:href="#n"/>
  <use x="117.699219" y="582.398437" xlink:href="#m"/>
  <use x="121.800781" y="582.398437" xlink:href="#d"/>
  <use x="124.5625" y="582.398437" xlink:href="#e"/>
  <use x="128.410156" y="582.398437" xlink:href="#l"/>
  <use x="130.332031" y="582.398437" xlink:href="#a"/>
  <use x="134.128906" y="582.398437" xlink:href="#k"/>
  <use x="137.449219" y="582.398437" xlink:href="#b"/>
 </g>
</svg>
